<svg xmlns="http://www.w3.org/2000/svg" xmlns:xlink="http://www.w3.org/1999/xlink" width="194.345" height="233.624" viewBox="0 0 182.199 219.022"><defs><filter id="d" x="-.168" width="1.337" y="-.168" height="1.335" color-interpolation-filters="sRGB"><feGaussianBlur stdDeviation=".63"/></filter><filter id="e" color-interpolation-filters="sRGB"><feGaussianBlur stdDeviation="1.275"/></filter><linearGradient xlink:href="#a" id="f" gradientUnits="userSpaceOnUse" gradientTransform="translate(-223.343 -63.977) scale(1.75753)" x1="94.473" y1="197.061" x2="97.325" y2="203.072"/><linearGradient id="a"><stop offset="0" stop-color="#8ae234"/><stop offset="1" stop-color="#4e9a06"/></linearGradient><linearGradient xlink:href="#a" id="g" gradientUnits="userSpaceOnUse" gradientTransform="translate(-223.343 -63.977) scale(1.75753)" x1="85.672" y1="198.703" x2="116.783" y2="252.588"/><linearGradient xlink:href="#b" id="h" gradientUnits="userSpaceOnUse" gradientTransform="matrix(1.66726 0 0 1.62815 -218.051 -225.052)" x1="93.082" y1="313.233" x2="121.945" y2="370.314"/><linearGradient id="b"><stop offset="0" stop-color="#fff" stop-opacity=".549"/><stop offset="1" stop-color="#fff" stop-opacity="0"/></linearGradient><radialGradient r="14.375" fy="125" fx="55" cy="125" cx="55" gradientUnits="userSpaceOnUse" id="i" xlink:href="#c"/><linearGradient id="c"><stop offset="0" stop-color="#fff"/><stop offset=".5" stop-color="#fff520" stop-opacity=".891"/><stop offset="1" stop-color="#fff300" stop-opacity="0"/></linearGradient></defs><g transform="translate(107.288 -240.81)"><path d="M100.134 82.972h8.98v9.021h-8.98z" transform="translate(-239.299 129.854) scale(1.75753)" fill-rule="evenodd" stroke="#000" stroke-width="1.651" filter="url(#d)"/><path d="M95.888 87.412h62.115a5.405 5.405 0 0 1 5.417 5.417v43.72a5.405 5.405 0 0 1-5.417 5.417H95.888a5.405 5.405 0 0 1-5.417-5.417V92.83a5.405 5.405 0 0 1 5.417-5.417z" transform="translate(-239.299 129.854) scale(1.75753)" fill-rule="evenodd" stroke="#000" stroke-width="2.051" filter="url(#e)"/><path d="M-63.31 275.68h15.782v15.855h-15.781z" fill="url(#f)" fill-rule="evenodd" stroke="#366a04" stroke-width="2.902"/><path d="M-70.772 283.483H38.396a9.5 9.5 0 0 1 9.521 9.521v76.84a9.5 9.5 0 0 1-9.52 9.52h-109.17a9.5 9.5 0 0 1-9.52-9.52v-76.84a9.5 9.5 0 0 1 9.52-9.52z" fill="url(#g)" fill-rule="evenodd" stroke="#366a04" stroke-width="3.605"/><path d="M7.261 331.424c0 12.95-10.498 23.45-23.45 23.45-12.95 0-23.449-10.5-23.449-23.45s10.5-23.45 23.45-23.45 23.45 10.5 23.45 23.45z" fill="#fff" stroke="#366a04" stroke-width="3.605"/><path d="M-68.185 286.857H35.376c6.761 0 9.032 2.836 9.032 8.82v71.183c0 5.985-2.49 8.82-9.032 8.82h-103.56c-6.762 0-9.033-2.616-9.033-8.82v-71.183c0-6.643 2.93-8.82 9.032-8.82z" fill="none" stroke="url(#h)" stroke-width="3.38" stroke-linejoin="round"/><circle r="14.375" cy="125" cx="55" style="marker:none" transform="translate(-76.383 64.435) scale(1.72247)" color="#000" display="block" fill="url(#i)"/></g><g style="line-height:125%;-inkscape-font-specification:'PT Sans Bold';text-align:start" font-weight="700" font-size="62.272" font-family="PT Sans" letter-spacing=".17" word-spacing="0" fill="#333" stroke="#292929" stroke-width=".772"><path d="M46.79 160.873l5.667 15.941 1.12 5.17h.25l.871-5.232 3.986-15.88h7.41l-9.59 31.448h-5.978l-6.29-17.436-.809-3.923h-.311l-.747 3.985-5.979 17.374h-6.165L20.2 160.873h8.78l4.546 15.63.747 5.542h.312l1.058-5.604 5.169-15.568h5.978zM93.598 189.331q-1.868 1.495-5.107 2.553-3.175.997-6.787.997-7.535 0-11.022-4.36-3.488-4.42-3.488-12.08 0-8.22 3.924-12.33 3.923-4.11 11.022-4.11 2.366 0 4.608.623 2.242.622 3.985 2.055 1.744 1.432 2.802 3.86 1.06 2.43 1.06 6.041 0 1.308-.188 2.802-.124 1.495-.436 3.114H75.29q.187 3.923 1.992 5.916 1.869 1.992 5.979 1.992 2.553 0 4.545-.747 2.055-.81 3.114-1.619l2.678 5.293zm-11.583-22.854q-3.176 0-4.733 1.93-1.494 1.869-1.805 5.045h11.582q.25-3.363-1.058-5.169-1.246-1.806-3.986-1.806zM100.481 148.418h8.096v14.946h.249q1.308-1.495 3.363-2.367 2.055-.871 4.545-.871 5.605 0 8.532 3.86 2.989 3.799 2.989 11.645 0 8.407-4.172 12.766-4.11 4.36-11.334 4.36-3.985 0-7.286-.686-3.3-.623-4.982-1.432v-42.22zm13.887 18.557q-2.242 0-3.674 1.184-1.37 1.12-2.117 3.3v13.575q.996.499 2.117.685 1.183.187 2.49.187 3.301 0 4.983-2.366 1.743-2.429 1.743-7.66 0-8.905-5.542-8.905zM133.977 160.873h5.916l.934 3.736h.249q1.619-2.366 3.798-3.487 2.242-1.121 5.418-1.121 5.854 0 8.78 3.736Q162 167.411 162 175.631q0 3.986-.934 7.224-.934 3.176-2.802 5.418-1.806 2.241-4.484 3.425-2.615 1.183-6.04 1.183-1.93 0-3.176-.312-1.245-.249-2.49-.871v12.765h-8.096v-43.59zm13.886 5.978q-2.366 0-3.736 1.183-1.308 1.183-2.055 3.55v12.952q.872.685 1.868 1.121 1.059.374 2.74.374 3.487 0 5.231-2.429 1.744-2.49 1.744-8.157 0-4.11-1.37-6.352t-4.422-2.242z" style="line-height:125%;-inkscape-font-specification:'PT Sans Bold';text-align:start"/></g></svg>